.
..............................Site Info...........................

 -   http://www.scenetime.com  *_*   

SceneTime is going to Close sign up on march/1, hurry up! get in before the doors are closed.

     We care to share . Join us on  http://www.scenetime.com 

    Be the first to get new release at  http://www.scenetime.com

        Seed back for speed


...................................NFO:.................................................[align=center]
        [/align]
[size=3][color=#009999]



   The Twilight Saga Breaking Dawn Part 1 2011 DVDRIP HC XVID AC3 - Xtreme Encode



[/color][/size]


[size=3]
[color=#CC9933]General


Complete name                            : The Twilight Saga Breaking Dawn Part 1 2011 DVDRIP HC XVID AC3 - Xtreme Encode.avi
Format                                   : AVI
Format/Info                              : Audio Video Interleave
Format profile                           : OpenDML
Format settings                          : rec
File size                                : 1.27 GiB
Duration                                 : 1h 57mn
Overall bit rate                         : 1 549 Kbps[/color][/size]




[size=3][color=#669900]
Video


ID                                       : 0
Format                                   : MPEG-4 Visual
Format profile                           : Advanced Simple@L5
Format settings, BVOP                    : 1
Format settings, QPel                    : No
Format settings, GMC                     : No warppoints
Format settings, Matrix                  : Default (H.263)
Codec ID                                 : XVID
Codec ID/Hint                            : XviD
Duration                                 : 1h 57mn
Bit rate                                 : 1 096 Kbps
Width                                    : 720 pixels
Height                                   : 400 pixels
Display aspect ratio                     : 16:9
Frame rate                               : 23.976 fps
Color space                              : YUV
Chroma subsampling                       : 4:2:0
Bit depth                                : 8 bits
Scan type                                : Progressive
Compression mode                         : Lossy
Bits/(Pixel*Frame)                       : 0.159
Stream size                              : 919 MiB (71%)[/color][/size]




[size=3][color=#009900]Audio


ID                                       : 1
Format                                   : AC-3
Format/Info                              : Audio Coding 3
Mode extension                           : CM (complete main)
Codec ID                                 : 2000
Duration                                 : 1h 57mn
Bit rate mode                            : Constant
Bit rate                                 : 448 Kbps
Channel(s)                               : 6 channels
Channel positions                        : Front: L C R, Side: L R, LFE
Sampling rate                            : 48.0 KHz
Bit depth                                : 16 bits
Compression mode                         : Lossy
Stream size                              : 375 MiB (29%)
Alignment                                : Aligned on interleaves
Interleave, duration                     : 64 ms (1.54 video frames)
Interleave, preload duration             : 192 ms[/color][/size]





[size=3][color=#6699FF]
SOURCE
Video : NTSC R1 DVDR-SW
Audio : NTSC R1 DVDR-SW



JUST A LITTLE MESS WITH THIS ADDES BIT OF CONTRAS 
RESIZED BIT TWEAKED BIT SHARPEN in 
SAT HUE and few othere things 

SAMPLE: YES

SUBTITLES: HC FOR BITS WERE NEEDED AND INCLUDES FULL SUBTITLES

  
:)[/color][/size]



[size=3][color=#0099CC]PLOT:

The Quileutes close in on expecting parents Edward and Bella, 
whose unborn child poses a threat to the Wolf Pack and the towns people of Forks. 
 


 [/color][/size]


[size=3][color=#CC6600]Genres: Adventure | Drama | Fantasy 


Director: Bill Condon

Writers: Melissa Rosenberg (screenplay), Stephenie Meyer (novel)

Stars: Kristen Stewart, Robert Pattinson and Taylor Lautner [/color][/size]


[size=3][color=#0033FF]IMDB: http://www.imdb.com/title/tt1324999/[/color][/size]



[size=3][color=#996600]HOPE U ALL LIKE THIS IF SO PLS REP

IF U GOT ANYTHING TO OFFER JUST DROP ONE AT: Xtreme-Encode@hushmail.me  :)[/color][/size]



[size=3][color=#CC0000]
SCREENS:





[/color][/size]


[size=3][b][font=Times New Roman][color=#3366CC]
   GREETS:

IMAGiNE / ELEKTRI4KA / FLAWL3SS  
ViSiON / CRYS / BMB / MiSTERE / 26K
AMB / FYA / Jamie111 / VISUALiSE  
ILLUMINATI / Rx / REFiLL / BHRG
TO MY FRIENDS  AND ALL OTHER GROUPS  :)[/color][/font][/b][/size]